<svg width="53" height="40" viewBox="0 0 53 40" fill="none" xmlns="http://www.w3.org/2000/svg">
<path d="M23.3649 0.00612381L23.3649 2.53405C15.9726 6.87376 11.4124 12.3703 9.67837 19.036C11.5504 17.7934 13.2605 17.1691 14.7966 17.1691C17.3527 17.1691 19.5127 18.2219 21.2768 20.3336C23.0409 22.4392 23.9229 25.0161 23.9229 28.0704C23.9229 31.443 22.7649 34.277 20.4488 36.5662C18.1327 38.8554 15.2826 40 11.8984 40C8.51432 40 5.68821 38.5432 3.41413 35.6297C1.14004 32.7161 -2.86114e-06 29.0926 -2.48229e-06 24.759C-1.94825e-06 18.6503 2.28609 13.1844 6.86426 8.34277C11.4424 3.50727 16.9446 0.728387 23.3649 1.22391e-06L23.3649 0.00612381ZM52.448 0.00612636L52.448 2.53405C45.0557 6.87376 40.4895 12.3703 38.7615 19.036C40.6395 17.7934 42.3556 17.1691 43.9217 17.1691C46.4538 17.1691 48.5958 18.2219 50.3599 20.3336C52.118 22.4453 53 25.0222 53 28.0704C53 31.443 51.848 34.277 49.5439 36.5662C47.2458 38.8554 44.4017 40 41.0175 40C37.6334 40 34.7713 38.5432 32.5092 35.6297C30.2471 32.7161 29.1191 29.0926 29.1191 24.759C29.1191 18.6503 31.3992 13.1844 35.9654 8.34277C40.5255 3.50727 46.0217 0.728389 52.448 3.76644e-06L52.448 0.00612636Z" fill="black"/>
</svg>
